<svg width="12" height="14" viewBox="0 0 12 14" fill="none" xmlns="http://www.w3.org/2000/svg">
<path d="M10.3314 2.58552H8.0627V2.20471C8.0627 1.57476 7.50755 1.06226 6.8252 1.06226H5.1752C4.49284 1.06226 3.9377 1.57476 3.9377 2.20471V2.58552H1.66895C1.10031 2.58552 0.637695 3.01261 0.637695 3.53757V4.87042C0.637695 5.08073 0.822392 5.25124 1.0502 5.25124H1.27563L1.632 12.1603C1.66348 12.7704 2.20643 13.2484 2.86808 13.2484H9.13231C9.79399 13.2484 10.3369 12.7704 10.3684 12.1603L10.7248 5.25124H10.9502C11.178 5.25124 11.3627 5.08073 11.3627 4.87042V3.53757C11.3627 3.01261 10.9001 2.58552 10.3314 2.58552ZM4.7627 2.20471C4.7627 1.99473 4.94775 1.82389 5.1752 1.82389H6.8252C7.05264 1.82389 7.2377 1.99473 7.2377 2.20471V2.58552H4.7627V2.20471ZM1.4627 3.53757C1.4627 3.43258 1.55522 3.34716 1.66895 3.34716H10.3314C10.4452 3.34716 10.5377 3.43258 10.5377 3.53757V4.48961C10.4106 4.48961 1.98948 4.48961 1.4627 4.48961V3.53757ZM9.54432 12.1241C9.53383 12.3274 9.35284 12.4868 9.13231 12.4868H2.86808C2.64752 12.4868 2.46654 12.3274 2.45607 12.1241L2.10155 5.25124H9.89884L9.54432 12.1241Z" fill="#1A1A38" stroke="#1A1A38" stroke-width="0.3"/>
</svg>
