<svg width="13" height="13" viewBox="0 0 13 13" fill="none" xmlns="http://www.w3.org/2000/svg">
<g clip-path="url(#clip0_9277_28310)">
<path d="M9.7319 6.95242C9.45542 6.95242 9.23194 7.17645 9.23194 7.45239V11.4524C9.23194 11.7279 9.00791 11.9524 8.73197 11.9524H1.73193C1.4559 11.9524 1.23196 11.7279 1.23196 11.4524V4.45239C1.23196 4.17691 1.4559 3.95242 1.73193 3.95242H5.73196C6.00845 3.95242 6.23193 3.72839 6.23193 3.45245C6.23193 3.17642 6.00845 2.95239 5.73196 2.95239H1.73193C0.904938 2.95239 0.231934 3.6254 0.231934 4.45239V11.4524C0.231934 12.2794 0.904938 12.9524 1.73193 12.9524H8.73197C9.55896 12.9524 10.232 12.2794 10.232 11.4524V7.45239C10.232 7.1759 10.0084 6.95242 9.7319 6.95242Z" fill="#1A1A38"/>
<path d="M4.92 6.49689C4.88502 6.53186 4.8615 6.57635 4.85152 6.62433L4.49803 8.39239C4.48155 8.47433 4.50755 8.55884 4.56651 8.61835C4.61403 8.66586 4.67802 8.69131 4.74358 8.69131C4.75951 8.69131 4.77608 8.68985 4.79256 8.68637L6.56007 8.33288C6.60905 8.32281 6.65355 8.29938 6.68806 8.26431L10.6441 4.30832L8.87654 2.54089L4.92 6.49689Z" fill="#1A1A38"/>
<path d="M11.8657 1.31925C11.3783 0.831734 10.5853 0.831734 10.0982 1.31925L9.40625 2.01121L11.1738 3.77872L11.8657 3.08668C12.1017 2.8512 12.2317 2.53718 12.2317 2.20319C12.2317 1.86921 12.1017 1.55518 11.8657 1.31925Z" fill="#1A1A38"/>
</g>
<defs>
<clipPath id="clip0_9277_28310">
<rect width="12" height="12" fill="white" transform="translate(0.231934 0.929321)"/>
</clipPath>
</defs>
</svg>
